<svg width="170" height="170" viewBox="0 0 170 170" fill="none" xmlns="http://www.w3.org/2000/svg">
<path fill-rule="evenodd" clip-rule="evenodd" d="M85 168.455C131.091 168.455 168.455 131.091 168.455 85C168.455 38.9093 131.091 1.54545 85 1.54545C38.9093 1.54545 1.54545 38.9093 1.54545 85C1.54545 131.091 38.9093 168.455 85 168.455ZM85 170C131.944 170 170 131.944 170 85C170 38.0558 131.944 0 85 0C38.0558 0 0 38.0558 0 85C0 131.944 38.0558 170 85 170Z" fill="#fff" fill-opacity="0.2"/>
<path fill-rule="evenodd" clip-rule="evenodd" d="M85 130.433C110.092 130.433 130.433 110.092 130.433 85C130.433 59.9079 110.092 39.5667 85 39.5667C59.9079 39.5667 39.5667 59.9079 39.5667 85C39.5667 110.092 59.9079 130.433 85 130.433ZM85 132C110.957 132 132 110.957 132 85C132 59.0426 110.957 38 85 38C59.0426 38 38 59.0426 38 85C38 110.957 59.0426 132 85 132Z" fill="#fff" fill-opacity="0.2"/>
<path d="M57.2908 135.861L58.4296 136.344C58.5994 136.416 58.656 136.546 58.5994 136.733L56.0843 144.773L61.9123 138.755C62.0232 138.62 62.151 138.583 62.2958 138.644L63.4795 139.146C63.5595 139.18 63.6119 139.223 63.637 139.275C63.6621 139.327 63.6715 139.401 63.6654 139.498L63.3513 147.854L67.4247 140.475C67.5212 140.305 67.6569 140.257 67.8317 140.331L68.9629 140.81C69.1627 140.895 69.2137 141.031 69.1158 141.219L63.5731 151.104C63.4716 151.273 63.3409 151.323 63.1811 151.255L61.7127 150.633C61.5429 150.561 61.4756 150.435 61.5108 150.256L61.8863 141.239L55.6297 147.762C55.5046 147.903 55.3622 147.94 55.2024 147.872L53.734 147.249C53.5791 147.184 53.5275 147.056 53.5791 146.866L56.8892 136.035C56.9572 135.834 57.091 135.776 57.2908 135.861Z" fill="#fff"/>
<path d="M44.1132 141.233C43.2089 140.56 42.5448 139.724 42.1209 138.727C41.6894 137.73 41.5391 136.694 41.6698 135.616C41.793 134.54 42.1942 133.549 42.8735 132.644C43.5495 131.743 44.3882 131.082 45.3896 130.66C46.3801 130.243 47.4177 130.097 48.5025 130.223C49.5753 130.347 50.566 130.747 51.4747 131.424C52.3833 132.101 53.0512 132.935 53.4783 133.929C53.9077 134.937 54.0613 135.97 53.9392 137.026C53.8149 138.095 53.4132 139.082 52.7339 139.987C52.0514 140.896 51.2132 141.562 50.2194 141.983C49.2256 142.404 48.1848 142.554 47.0968 142.432C46.0077 142.303 45.0131 141.903 44.1132 141.233ZM50.3778 132.886C49.9191 132.53 49.4079 132.281 48.8442 132.138C48.2773 132 47.7241 131.969 47.1847 132.047C46.6376 132.126 46.1136 132.309 45.6125 132.598C45.1081 132.891 44.6864 133.272 44.3473 133.742C43.8728 134.374 43.5916 135.069 43.5038 135.828C43.4149 136.578 43.5202 137.305 43.8199 138.007C44.1195 138.71 44.5846 139.296 45.215 139.765C45.6737 140.12 46.1886 140.369 46.7599 140.511C47.3268 140.649 47.8838 140.679 48.4308 140.6C48.9735 140.518 49.4971 140.331 50.0014 140.038C50.5014 139.742 50.921 139.359 51.26 138.889C51.6165 138.433 51.8665 137.923 52.01 137.362C52.1459 136.801 52.1765 136.25 52.1018 135.709C52.0196 135.168 51.8315 134.647 51.5376 134.144C51.2361 133.643 50.8495 133.223 50.3778 132.886Z" fill="#fff"/>
<path d="M39.8202 120.754C39.8688 120.711 39.9238 120.691 39.9851 120.695C40.0464 120.698 40.1006 120.726 40.1475 120.779L41.1395 121.886C41.2299 121.987 41.2448 122.13 41.1843 122.314L39.7007 126.274L41.3107 128.071L44.069 125.62C44.2229 125.483 44.3667 125.489 44.5004 125.638L45.3189 126.552C45.449 126.698 45.4371 126.839 45.2832 126.975L36.8626 134.46C36.7937 134.521 36.721 134.549 36.6443 134.545C36.5636 134.544 36.4944 134.511 36.4366 134.447L33.8996 131.614C33.0961 130.742 32.7156 129.765 32.7582 128.683C32.7967 127.605 33.2528 126.689 34.1263 125.935C34.7217 125.405 35.373 125.077 36.08 124.948C36.7871 124.82 37.4803 124.899 38.1597 125.187L39.7508 120.859C39.7647 120.818 39.7878 120.783 39.8202 120.754ZM36.7176 132.154L40.0105 129.227L38.4927 127.532C38.0591 127.048 37.5456 126.783 36.9523 126.738C36.3549 126.697 35.8213 126.885 35.3514 127.302C34.8694 127.731 34.6153 128.243 34.5889 128.839C34.5589 129.431 34.7625 129.971 35.1998 130.459L36.7176 132.154Z" fill="#fff"/>
<path d="M33.7334 111.07C33.8584 110.993 33.9677 111.031 34.0612 111.183L34.7758 112.345C34.8609 112.484 34.8441 112.627 34.7254 112.776L33.2033 114.741L35.9426 119.195L38.3807 118.735C38.5675 118.697 38.7062 118.752 38.797 118.899L39.5073 120.054C39.5981 120.202 39.5856 120.311 39.4699 120.381C39.4236 120.41 39.3763 120.426 39.3279 120.43L27.3145 122.416C27.1203 122.452 26.9764 122.394 26.8828 122.242L26.3554 121.384C26.2618 121.232 26.2767 121.08 26.4 120.929L33.6324 111.169C33.672 111.12 33.7056 111.087 33.7334 111.07ZM34.2921 119.508L32.1739 116.064L28.6854 120.561L34.2921 119.508Z" fill="#fff"/>
<path d="M19.0118 104.256L29.7816 100.389C29.9246 100.338 30.0228 100.386 30.0762 100.534L30.5151 101.747C30.5777 101.92 30.5508 102.085 30.4344 102.241L24.175 111.231L32.6086 108.203C32.7516 108.151 32.8489 108.197 32.9004 108.339L33.3615 109.614C33.4148 109.761 33.37 109.861 33.227 109.912L22.4572 113.779C22.3091 113.832 22.2083 113.785 22.155 113.637L21.6774 112.317C21.6185 112.154 21.6556 111.986 21.7887 111.812L27.811 103.028L19.6302 105.965C19.4821 106.018 19.3823 105.974 19.3307 105.831L18.8697 104.557C18.8163 104.409 18.8637 104.309 19.0118 104.256Z" fill="#fff"/>
<path d="M16.1807 84.0761C16.2347 84.071 16.2844 84.0771 16.3297 84.0946L27.9963 87.561C28.1921 87.613 28.2985 87.7279 28.3155 87.9055L28.411 88.9068C28.4274 89.079 28.3473 89.2115 28.1708 89.3043L23.6512 91.6549L28.5247 93.1001C28.72 93.1468 28.8264 93.2616 28.8438 93.4446L28.9393 94.4459C28.9558 94.6181 28.876 94.7533 28.6999 94.8515L17.8967 100.437C17.8555 100.462 17.8052 100.478 17.7458 100.483C17.6107 100.496 17.5349 100.417 17.5185 100.244L17.3899 98.8958C17.3739 98.729 17.4545 98.6018 17.6316 98.5145L26.2337 94.205L16.9603 91.5631C16.7758 91.5154 16.6756 91.4081 16.6597 91.2412L16.531 89.8928C16.5146 89.7205 16.5739 89.628 16.709 89.6152C16.7631 89.6101 16.8127 89.6162 16.858 89.6337L21.4621 90.9985L25.7821 88.6994L16.4319 86.024C16.2474 85.9763 16.1475 85.8717 16.1321 85.7102L16.0027 84.3537C15.9862 84.1814 16.0456 84.0889 16.1807 84.0761Z" fill="#fff"/>
<path d="M29.5489 72.313C29.6939 72.334 29.7536 72.4328 29.7278 72.6094L29.5311 73.9579C29.5077 74.1184 29.4027 74.2179 29.216 74.2565L26.7839 74.7978L26.0299 79.9669L28.1999 81.1662C28.3678 81.2561 28.4393 81.3866 28.4143 81.5579L28.2188 82.8983C28.1938 83.0695 28.1142 83.1454 27.9799 83.126C27.9261 83.1182 27.8794 83.1005 27.8395 83.0729L17.3296 76.9455C17.1571 76.8495 17.0837 76.7132 17.1095 76.5366L17.2547 75.5413C17.2804 75.3647 17.3893 75.2575 17.5813 75.2198L29.4072 72.3253C29.4694 72.3125 29.5167 72.3084 29.5489 72.313ZM24.5603 79.1559L25.1433 75.1587L19.574 76.3934L24.5603 79.1559Z" fill="#fff"/>
<path d="M21.9211 59.1004C21.9674 59.116 22.0214 59.1512 22.083 59.2062L27.2317 65.0371L31.4749 66.4633C31.6704 66.529 31.7369 66.654 31.6744 66.8385L31.2787 68.0066C31.2128 68.2013 31.0821 68.2658 30.8866 68.2001L26.6434 66.7739L18.9931 68.3028C18.9141 68.3162 18.8489 68.3143 18.7975 68.297C18.6843 68.2589 18.6555 68.158 18.711 67.994L19.1744 66.626C19.2195 66.4928 19.34 66.4078 19.5358 66.3709L25.1786 65.3142L21.3294 61.0758C21.1943 60.9334 21.1519 60.7879 21.2022 60.6393L21.663 59.279C21.7168 59.1202 21.8028 59.0606 21.9211 59.1004Z" fill="#fff"/>
<path d="M40.6919 49.7807C40.8143 49.8609 40.8264 49.9756 40.7279 50.1247L39.9764 51.2632C39.8869 51.3987 39.7494 51.4446 39.564 51.4008L37.1306 50.8649L34.2496 55.2293L35.7054 57.2313C35.8193 57.3835 35.8285 57.5319 35.7331 57.6765L34.986 58.8083C34.8905 58.9528 34.7861 58.988 34.6727 58.9137C34.6274 58.884 34.5925 58.8482 34.5682 58.8064L27.6531 48.8212C27.5377 48.6615 27.5292 48.5071 27.6276 48.358L28.1823 47.5176C28.2808 47.3685 28.425 47.3174 28.615 47.3642L40.5583 49.7321C40.6202 49.7467 40.6647 49.7629 40.6919 49.7807ZM33.2632 53.8745L35.4911 50.4996L29.9211 49.2681L33.2632 53.8745Z" fill="#fff"/>
<path d="M34.2264 40.0846L39.1607 44.8726C39.8102 45.518 40.5574 45.8505 41.4021 45.8701C42.2468 45.882 42.9777 45.5646 43.5949 44.918C44.2238 44.2903 44.5194 43.558 44.4815 42.7211C44.4436 41.8841 44.0904 41.1489 43.4218 40.5152L38.4875 35.7272C38.367 35.6102 38.3654 35.4917 38.4829 35.3716L39.4089 34.4246C39.5264 34.3045 39.6453 34.303 39.7659 34.4199L44.7118 39.2193C45.7846 40.2377 46.3354 41.3948 46.3639 42.6907C46.3963 43.9828 45.901 45.1402 44.878 46.1631C43.8481 47.2395 42.6901 47.7766 41.4041 47.7743C40.1181 47.7643 38.9402 47.2291 37.8707 46.1686L32.9481 41.3919C32.8276 41.2749 32.8203 41.1622 32.9264 41.0538L33.8865 40.0719C33.9926 39.9634 34.1059 39.9677 34.2264 40.0846Z" fill="#fff"/>
<path d="M42.6829 33.6524L41.9911 32.6994C41.8734 32.5373 41.8981 32.3961 42.0653 32.2756L48.3662 27.7367C48.529 27.6194 48.6692 27.6419 48.7869 27.804L49.4739 28.7504C49.5312 28.8293 49.5553 28.9087 49.5463 28.9886C49.5341 29.0641 49.4907 29.1288 49.4159 29.1826L47.0143 30.9127L52.797 38.8784C52.9179 39.0449 52.8948 39.1884 52.7276 39.3088L51.7379 40.0217C51.5708 40.1421 51.4268 40.1191 51.3059 39.9526L45.5232 31.9868L43.1149 33.7216C43.0402 33.7754 42.9627 33.7979 42.8825 33.7889C42.8067 33.7768 42.7402 33.7313 42.6829 33.6524Z" fill="#fff"/>
<path d="M56.565 23.1928C57.5896 22.7205 58.6432 22.5357 59.7257 22.6385C60.8108 22.7342 61.798 23.0954 62.6873 23.7222C63.5792 24.3419 64.2634 25.1645 64.7398 26.1901C65.2139 27.2109 65.3994 28.2604 65.2962 29.3387C65.1933 30.4049 64.8284 31.3834 64.2015 32.2742C63.5821 33.1555 62.7576 33.8334 61.728 34.308C60.6984 34.7825 59.6434 34.9709 58.5632 34.873C57.4686 34.7698 56.4837 34.4135 55.6085 33.804C54.7238 33.187 54.0432 32.3657 53.5668 31.34C53.0881 30.3095 52.899 29.2587 52.9996 28.1875C53.1002 27.1164 53.4628 26.133 54.0875 25.2373C54.7194 24.3443 55.5452 23.6628 56.565 23.1928ZM60.9586 32.6517C61.4903 32.4186 61.9533 32.089 62.3475 31.663C62.7395 31.2321 63.0295 30.7618 63.2174 30.2522C63.408 29.7354 63.495 29.1888 63.4785 28.6125C63.4598 28.0313 63.3235 27.4804 63.0698 26.9599C62.737 26.2434 62.2566 25.6664 61.6288 25.229C61.0081 24.7941 60.3163 24.541 59.5535 24.4696C58.7906 24.3982 58.052 24.5271 57.3377 24.8564C56.806 25.0895 56.3417 25.4227 55.9448 25.8559C55.5529 26.2868 55.2616 26.7606 55.071 27.2775C54.8854 27.792 54.8019 28.3399 54.8207 28.9211C54.8444 29.5 54.9831 30.0497 55.2368 30.5703C55.4709 31.0999 55.8017 31.5611 56.2294 31.9538C56.6597 32.3394 57.1318 32.6282 57.6457 32.8203C58.1622 33.0053 58.7122 33.0884 59.2957 33.0697C59.8817 33.0438 60.4361 32.9045 60.9586 32.6517Z" fill="#fff"/>
<path d="M69.9842 20.1824L69.781 19.0239C69.7464 18.8268 69.8307 18.7106 70.0339 18.6752L77.6937 17.3417C77.8915 17.3073 78.0077 17.3886 78.0423 17.5857L78.2442 18.7362C78.261 18.8321 78.2478 18.914 78.2046 18.9819C78.1605 19.0445 78.093 19.0837 78.0021 19.0995L75.0825 19.6077L76.7814 29.2913C76.8169 29.4937 76.733 29.6126 76.5298 29.648L75.3267 29.8575C75.1235 29.8928 75.0042 29.8093 74.9687 29.6069L73.2698 19.9233L70.3423 20.4329C70.2514 20.4488 70.1718 20.4352 70.1037 20.3921C70.0409 20.3482 70.001 20.2783 69.9842 20.1824Z" fill="#fff"/>
<path d="M89.63 28.5977C89.6306 28.6626 89.6093 28.7169 89.5662 28.7605C89.5232 28.8041 89.4664 28.8262 89.3958 28.8267L87.9058 28.8389C87.7701 28.84 87.6527 28.7571 87.5536 28.5903L85.5444 24.8675L83.1263 24.8872L83.1565 28.5694C83.1582 28.7748 83.0586 28.8784 82.8578 28.88L81.6283 28.89C81.4329 28.8916 81.3344 28.7897 81.3327 28.5842L81.2404 17.343C81.2396 17.251 81.2661 17.1778 81.32 17.1233C81.3738 17.0634 81.4441 17.0331 81.5309 17.0324L85.3414 17.0013C86.53 16.9754 87.5182 17.335 88.306 18.0803C89.0938 18.8201 89.4842 19.7659 89.4774 20.9177C89.4839 21.7126 89.3024 22.417 88.9329 23.0311C88.5634 23.6451 88.0461 24.1117 87.381 24.4307L89.5965 28.4763C89.6185 28.514 89.6297 28.5545 89.63 28.5977ZM83.0759 18.7556L83.112 23.1515L85.3918 23.1329C86.0431 23.1276 86.5815 22.9177 87.007 22.5033C87.4323 22.0835 87.6425 21.5599 87.6373 20.9327C87.632 20.2893 87.4133 19.7611 86.981 19.3483C86.5542 18.9354 86.0124 18.7316 85.3556 18.737L83.0759 18.7556Z" fill="#fff"/>
<path d="M100.965 30.4717C100.939 30.6155 100.838 30.6719 100.662 30.6408L99.3148 30.4035C99.1545 30.3752 99.0578 30.2676 99.0249 30.0806L98.5564 27.6424L93.3929 26.7328L92.1229 28.8565C92.0276 29.0209 91.8944 29.0881 91.7233 29.058L90.3844 28.8221C90.2133 28.792 90.1396 28.7103 90.1632 28.5772C90.1727 28.524 90.1919 28.4779 90.2208 28.4391L96.692 18.163C96.7937 17.9942 96.9327 17.9253 97.1091 17.9564L98.1033 18.1315C98.2797 18.1626 98.3839 18.2743 98.4159 18.4666L100.957 30.3303C100.968 30.3927 100.97 30.4398 100.965 30.4717ZM94.2519 25.2944L98.2448 25.9978L97.1771 20.4147L94.2519 25.2944Z" fill="#fff"/>
<path d="M116.174 24.1347L111.893 34.7114C111.836 34.8518 111.735 34.8927 111.589 34.8341L110.388 34.3519C110.217 34.2832 110.112 34.1533 110.072 33.9625L107.512 23.3236L104.16 31.6059C104.103 31.7464 104.005 31.7883 103.864 31.7316L102.602 31.2252C102.456 31.1666 102.412 31.067 102.469 30.9266L106.749 20.3499C106.808 20.2045 106.91 20.1611 107.056 20.2197L108.363 20.7443C108.524 20.809 108.625 20.9489 108.667 21.1639L111.231 31.4895L114.482 23.4554C114.541 23.3099 114.641 23.2655 114.782 23.3221L116.043 23.8286C116.189 23.8872 116.232 23.9893 116.174 24.1347Z" fill="#fff"/>
<path d="M113.993 34.3361C114.028 34.2817 114.086 34.2384 114.165 34.2061L115.254 33.761C115.368 33.7253 115.459 33.7297 115.527 33.774C115.586 33.8124 115.637 33.8778 115.681 33.9704C115.834 34.4383 116.09 34.9141 116.447 35.398C116.809 35.8848 117.26 36.3039 117.801 36.6554C118.465 37.0867 119.097 37.3135 119.698 37.336C120.302 37.3539 120.751 37.1387 121.045 36.6903C121.24 36.3913 121.287 36.0669 121.186 35.717C121.095 35.361 120.921 35.0185 120.663 34.6897C120.356 34.2968 120.017 33.899 119.646 33.4963C119.083 32.8721 118.639 32.2969 118.316 31.7707C117.65 30.6796 117.638 29.6448 118.278 28.6665C118.826 27.8092 119.593 27.3418 120.576 27.2644C121.568 27.1854 122.583 27.4902 123.623 28.1786C124.223 28.5685 124.746 29.0274 125.191 29.5554C125.639 30.0788 125.961 30.6207 126.158 31.1811C126.194 31.2948 126.187 31.3901 126.136 31.4671C126.098 31.5259 126.039 31.5715 125.959 31.6038L124.864 32.0445C124.747 32.0847 124.65 32.0797 124.572 32.0295C124.518 31.994 124.467 31.9285 124.419 31.833C124.158 31.3017 123.914 30.8978 123.686 30.6211C123.462 30.3399 123.106 30.0375 122.618 29.714C122.063 29.3536 121.517 29.1634 120.979 29.1433C120.446 29.1262 120.06 29.301 119.819 29.6679C119.647 29.9306 119.601 30.2198 119.679 30.5354C119.759 30.8196 119.896 31.0957 120.09 31.3637C120.283 31.6317 120.584 31.9849 120.99 32.4232C121.636 33.1591 122.124 33.7893 122.455 34.3139C122.802 34.8429 123.005 35.398 123.065 35.9793C123.127 36.5486 122.969 37.1208 122.593 37.696C122.21 38.2998 121.695 38.7204 121.047 38.9579C120.402 39.1909 119.71 39.2383 118.971 39.1003C118.232 38.9622 117.508 38.6568 116.8 38.184C116.096 37.7262 115.527 37.2182 115.096 36.6601C114.664 36.102 114.296 35.4368 113.992 34.6645C113.936 34.5316 113.936 34.4221 113.993 34.3361Z" fill="#fff"/>
<path d="M133.121 41.1963C132.616 41.7555 132.028 42.138 131.356 42.344C130.688 42.546 130.009 42.5571 129.318 42.3774C128.631 42.1936 128.004 41.8335 127.438 41.2968L125.86 39.843L123.355 42.5404C123.215 42.6913 123.071 42.6988 122.924 42.5629L122.021 41.7314C121.878 41.5992 121.876 41.4577 122.016 41.3068L129.679 33.0537C129.741 32.9862 129.811 32.951 129.888 32.948C129.968 32.941 130.04 32.9669 130.104 33.0257L132.806 35.5149C133.387 36.0356 133.795 36.632 134.028 37.304C134.262 37.976 134.3 38.6556 134.143 39.3429C133.989 40.0261 133.648 40.6439 133.121 41.1963ZM131.781 39.9513C132.216 39.4828 132.418 38.9508 132.387 38.3551C132.356 37.7593 132.099 37.2394 131.617 36.7951L130.039 35.3413L127.048 38.5627L128.626 40.0166C129.108 40.4608 129.647 40.6771 130.242 40.6655C130.841 40.6498 131.354 40.4118 131.781 39.9513Z" fill="#fff"/>
<path d="M141.791 45.3848C142.453 46.2961 142.837 47.2908 142.943 48.3689C143.056 49.4482 142.889 50.4825 142.442 51.472C142.003 52.4627 141.323 53.2892 140.404 53.9514C139.489 54.6105 138.49 54.9928 137.408 55.0984C136.338 55.2021 135.304 55.0327 134.306 54.5904C133.319 54.1536 132.493 53.4773 131.828 52.5616C131.164 51.6458 130.776 50.6505 130.666 49.5756C130.558 48.4856 130.72 47.4544 131.153 46.482C131.591 45.4988 132.27 44.6762 133.19 44.0139C134.113 43.3485 135.112 42.9624 136.187 42.8556C137.262 42.7487 138.3 42.9149 139.302 43.3541C140.303 43.8009 141.133 44.4778 141.791 45.3848ZM133.313 51.4922C133.645 51.9673 134.058 52.3569 134.553 52.6607C135.053 52.9614 135.572 53.1548 136.11 53.241C136.656 53.3283 137.211 53.3087 137.775 53.1822C138.344 53.0526 138.861 52.8138 139.325 52.466C139.968 52.0034 140.444 51.4233 140.755 50.7256C141.064 50.0355 141.181 49.3107 141.106 48.5512C141.03 47.7917 140.761 47.0942 140.3 46.4589C139.969 45.9837 139.551 45.5936 139.049 45.2885C138.549 44.9878 138.026 44.7938 137.481 44.7065C136.938 44.6235 136.382 44.6469 135.813 44.7765C135.247 44.9106 134.732 45.1515 134.268 45.4993C133.791 45.8296 133.4 46.2414 133.095 46.7347C132.797 47.2292 132.603 47.7461 132.512 48.2854C132.429 48.8258 132.453 49.3795 132.583 49.9463C132.72 50.5144 132.964 51.0297 133.313 51.4922Z" fill="#fff"/>
<path d="M139.686 65.9694C139.627 65.9964 139.569 65.9993 139.511 65.978C139.454 65.9567 139.41 65.9141 139.381 65.8502L138.76 64.5008C138.703 64.3779 138.731 64.2373 138.843 64.079L141.431 60.7295L140.424 58.5396L137.063 60.0737C136.876 60.1593 136.74 60.1112 136.657 59.9293L136.144 58.8159C136.063 58.639 136.116 58.5077 136.304 58.4221L146.563 53.7385C146.647 53.7002 146.724 53.6943 146.796 53.721C146.873 53.7453 146.93 53.7969 146.966 53.8755L148.554 57.3263C149.064 58.396 149.139 59.4414 148.778 60.4624C148.423 61.4811 147.717 62.223 146.659 62.6881C145.933 63.0193 145.214 63.1426 144.5 63.058C143.786 62.9734 143.147 62.6941 142.583 62.2201L139.784 65.8892C139.758 65.9246 139.726 65.9513 139.686 65.9694ZM146.02 55.9849L142.008 57.8164L142.958 59.881C143.229 60.4708 143.642 60.8743 144.195 61.0914C144.754 61.3063 145.32 61.2831 145.892 61.0217C146.479 60.7537 146.873 60.3387 147.075 59.7769C147.278 59.22 147.243 58.6442 146.97 58.0494L146.02 55.9849Z" fill="#fff"/>
<path d="M149.835 64.169L150.975 63.8606C151.168 63.8081 151.292 63.881 151.346 64.0793L153.385 71.5541C153.438 71.7472 153.368 71.87 153.174 71.9224L152.042 72.2287C151.948 72.2542 151.865 72.2487 151.793 72.2121C151.726 72.1741 151.681 72.1108 151.657 72.0221L150.88 69.173L141.357 71.7508C141.157 71.8047 141.031 71.7325 140.977 71.5342L140.657 70.3601C140.602 70.1618 140.675 70.0357 140.874 69.9819L150.397 67.4041L149.618 64.5472C149.594 64.4585 149.6 64.3784 149.637 64.3068C149.675 64.2404 149.741 64.1945 149.835 64.169Z" fill="#fff"/>
<path d="M145.562 88.5204C145.564 88.6123 145.533 88.6832 145.469 88.7332L144.433 89.4672C144.411 89.4893 144.376 89.5008 144.328 89.5017C144.214 89.5039 144.115 89.4491 144.031 89.3371C143.637 88.8851 143.316 88.3288 143.07 87.6684C142.829 87.0187 142.703 86.3776 142.69 85.745C142.668 84.6151 142.922 83.5691 143.451 82.607C143.976 81.6557 144.704 80.8925 145.638 80.3173C146.561 79.7477 147.586 79.4519 148.715 79.43C149.844 79.408 150.883 79.6637 151.833 80.1968C152.794 80.7352 153.555 81.4694 154.116 82.3996C154.682 83.3404 154.977 84.3758 154.999 85.5057C155.011 86.1166 154.907 86.7487 154.686 87.4019C154.466 88.066 154.168 88.6586 153.793 89.1797C153.702 89.2896 153.611 89.3455 153.519 89.3473C153.475 89.3481 153.432 89.3355 153.388 89.3093L152.34 88.5995C152.268 88.5631 152.232 88.4962 152.23 88.3989C152.228 88.3178 152.259 88.236 152.323 88.1537C152.614 87.7532 152.839 87.3216 152.998 86.8588C153.157 86.396 153.233 85.9565 153.224 85.5402C153.209 84.7401 152.999 84.0113 152.595 83.354C152.191 82.6966 151.649 82.1798 150.969 81.8037C150.293 81.4274 149.554 81.2471 148.751 81.2627C148.17 81.2632 147.608 81.385 147.064 81.6281C146.526 81.8711 146.063 82.1938 145.674 82.5962C145.291 82.9984 144.988 83.4721 144.766 84.0173C144.548 84.5678 144.451 85.1321 144.473 85.7104C144.481 86.1321 144.574 86.5683 144.751 87.0192C144.928 87.4754 145.167 87.8899 145.468 88.2627C145.529 88.3534 145.561 88.4393 145.562 88.5204Z" fill="#fff"/>
<path d="M153.759 98.771C153.545 99.8754 153.08 100.835 152.364 101.65C151.652 102.472 150.781 103.059 149.751 103.412C148.725 103.771 147.655 103.844 146.541 103.63C145.433 103.417 144.469 102.954 143.651 102.241C142.842 101.535 142.258 100.668 141.898 99.6408C141.542 98.6252 141.471 97.5626 141.686 96.4529C141.901 95.3432 142.364 94.3802 143.074 93.564C143.798 92.7393 144.663 92.1511 145.671 91.7994C146.691 91.4445 147.758 91.374 148.872 91.5879C149.991 91.8028 150.958 92.2638 151.772 92.9707C152.586 93.6777 153.175 94.5453 153.54 95.5736C153.898 96.6061 153.971 97.6719 153.759 98.771ZM143.485 96.7983C143.364 97.3644 143.363 97.9312 143.479 98.4988C143.602 99.0674 143.815 99.5766 144.121 100.026C144.431 100.482 144.825 100.872 145.304 101.195C145.789 101.519 146.317 101.731 146.89 101.83C147.668 101.979 148.419 101.928 149.142 101.676C149.859 101.428 150.469 101.017 150.973 100.441C151.477 99.8664 151.803 99.1939 151.952 98.424C152.072 97.858 152.072 97.288 151.951 96.714C151.829 96.1454 151.613 95.6331 151.303 95.1771C150.992 94.7265 150.595 94.339 150.11 94.0146C149.625 93.6956 149.096 93.4867 148.523 93.3878C147.955 93.2677 147.386 93.2658 146.816 93.3822C146.251 93.5049 145.74 93.7179 145.283 94.0211C144.83 94.3308 144.441 94.7269 144.116 95.2095C143.795 95.6985 143.584 96.2281 143.485 96.7983Z" fill="#fff"/>
<path d="M135.048 115.388L135.563 114.267C135.64 114.1 135.772 114.047 135.958 114.108L143.958 116.829L138.076 110.863C137.944 110.749 137.91 110.621 137.975 110.479L138.511 109.313C138.547 109.235 138.592 109.184 138.644 109.16C138.697 109.136 138.772 109.129 138.869 109.138L147.246 109.675L139.951 105.421C139.782 105.32 139.737 105.183 139.816 105.011L140.328 103.898C140.419 103.701 140.557 103.654 140.742 103.757L150.513 109.542C150.68 109.647 150.727 109.779 150.654 109.936L149.99 111.381C149.913 111.549 149.785 111.612 149.607 111.572L140.568 110.956L146.946 117.362C147.084 117.49 147.117 117.633 147.045 117.79L146.38 119.236C146.31 119.388 146.181 119.436 145.992 119.38L135.211 115.792C135.012 115.719 134.957 115.584 135.048 115.388Z" fill="#fff"/>
<path d="M135.525 127.929C134.911 127.492 134.463 126.953 134.183 126.311C133.907 125.672 133.82 125 133.922 124.297C134.028 123.596 134.318 122.935 134.79 122.314L136.064 120.59L133.093 118.412C132.927 118.29 132.903 118.149 133.022 117.988L133.751 117.001C133.867 116.844 134.008 116.827 134.174 116.949L143.263 123.612C143.337 123.666 143.38 123.731 143.392 123.807C143.408 123.886 143.39 123.96 143.339 124.03L141.157 126.982C140.703 127.616 140.153 128.086 139.509 128.392C138.865 128.699 138.191 128.813 137.488 128.734C136.789 128.658 136.135 128.389 135.525 127.929ZM136.617 126.464C137.133 126.842 137.686 126.982 138.277 126.885C138.868 126.788 139.358 126.476 139.747 125.949L141.021 124.224L137.474 121.623L136.199 123.348C135.81 123.875 135.655 124.432 135.733 125.02C135.815 125.611 136.11 126.092 136.617 126.464Z" fill="#fff"/>
<path d="M121.269 131.119C121.169 131.013 121.183 130.898 121.313 130.776L122.307 129.839C122.425 129.728 122.569 129.714 122.74 129.799L124.985 130.876L128.794 127.286L127.837 125.005C127.761 124.83 127.786 124.684 127.912 124.565L128.9 123.634C129.026 123.515 129.136 123.504 129.229 123.603C129.266 123.642 129.292 123.685 129.306 123.731L133.741 135.029C133.816 135.211 133.789 135.363 133.659 135.486L132.926 136.177C132.795 136.3 132.643 136.317 132.469 136.228L121.388 131.197C121.331 131.168 121.292 131.142 121.269 131.119ZM129.442 128.83L126.497 131.606L131.636 134.076L129.442 128.83Z" fill="#fff"/>
<path d="M117.584 146.935L111.568 137.233C111.488 137.104 111.515 136.998 111.649 136.916L112.75 136.238C112.907 136.142 113.075 136.134 113.253 136.215L123.372 140.466L118.662 132.868C118.582 132.739 118.606 132.635 118.736 132.556L119.893 131.844C120.026 131.761 120.133 131.785 120.213 131.913L126.229 141.616C126.312 141.749 126.286 141.857 126.152 141.94L124.954 142.677C124.806 142.768 124.633 142.766 124.434 142.672L114.566 138.61L119.136 145.98C119.218 146.114 119.195 146.22 119.066 146.3L117.909 147.012C117.775 147.094 117.667 147.069 117.584 146.935Z" fill="#fff"/>
<path d="M105.448 151.884C105.431 151.839 105.424 151.775 105.427 151.693L106.696 144.03L105.116 139.856C105.043 139.664 105.098 139.533 105.281 139.465L106.439 139.03C106.632 138.957 106.765 139.017 106.838 139.21L108.418 143.384L114.451 148.312C114.511 148.365 114.551 148.416 114.57 148.467C114.612 148.578 114.552 148.664 114.39 148.725L113.034 149.235C112.902 149.284 112.759 149.245 112.606 149.118L108.211 145.437L107.357 151.089C107.332 151.284 107.246 151.408 107.099 151.464L105.75 151.97C105.593 152.029 105.492 152.001 105.448 151.884Z" fill="#fff"/>
</svg>
